<svg xmlns="http://www.w3.org/2000/svg" xmlns:xlink="http://www.w3.org/1999/xlink" version="1.1" width="1000" height="1000" viewBox="0 0 1000 1000" xml:space="preserve">
<desc>Created with Fabric.js 3.5.0</desc>
<defs>
</defs>
<rect x="0" y="0" width="100%" height="100%" fill="#ffffff"/>
<g transform="matrix(13.3636 0 0 22.868 501.5861 496.8189)" id="666115">
<path style="stroke: none; stroke-width: 0; stroke-dasharray: none; stroke-linecap: butt; stroke-dashoffset: 0; stroke-linejoin: miter; stroke-miterlimit: 4; is-custom-font: none; font-file-url: none; fill: rgb(9,24,38); fill-rule: nonzero; opacity: 1;" vector-effect="non-scaling-stroke" transform=" translate(-43.5, -25)" d="M 2.5 2.5 H 84.5 V 47.5 H 2.5 V 2.5 Z" stroke-linecap="round"/>
</g>
<g transform="matrix(25.7954 -5.073 5.073 25.7954 500.0006 500.0103)" id="720647">
<rect style="stroke: none; stroke-width: 1; stroke-dasharray: none; stroke-linecap: butt; stroke-dashoffset: 0; stroke-linejoin: miter; stroke-miterlimit: 4; is-custom-font: none; font-file-url: none; fill: rgb(255,255,255); fill-rule: nonzero; opacity: 1;" x="-5.3225" y="-5.3225" rx="0" ry="0" width="10.645" height="10.645"/>
</g>
<g transform="matrix(26.2895 0 0 26.2895 499.9994 499.9994)" id="622614">
<path style="stroke: none; stroke-width: 1; stroke-dasharray: none; stroke-linecap: butt; stroke-dashoffset: 0; stroke-linejoin: miter; stroke-miterlimit: 4; is-custom-font: none; font-file-url: none; fill: rgb(255,255,255); fill-rule: nonzero; opacity: 1;" transform=" translate(-103.7715, -99.618)" d="M 115.914 91.056 V 87.477 H 105.871 L 96.41 84.105 l -1.2 3.372 H 91.63 V 97.52 l -3.372 9.46 l 3.372 1.2 v 3.579 h 10.043 l 9.461 3.372 l 1.2 -3.372 h 3.579 V 101.718 l 3.372 -9.461 Z m -4.255 16.451 H 95.884 V 91.731 H 111.66 Z" stroke-linecap="round"/>
</g>
</svg>